<?xml version="1.0" encoding="UTF-8"?>
<svg xmlns="http://www.w3.org/2000/svg" xmlns:xlink="http://www.w3.org/1999/xlink" width="304px" height="304px" viewBox="0 0 304 304" version="1.1">
<defs>
<clipPath id="clip1">
  <path d="M 45.601562 43 L 258.402344 43 L 258.402344 261 L 45.601562 261 Z M 45.601562 43 "/>
</clipPath>
<clipPath id="clip2">
  <path d="M 102.316406 185 L 201.6875 185 L 201.6875 194 L 102.316406 194 Z M 102.316406 185 "/>
</clipPath>
<clipPath id="clip3">
  <path d="M 102.5625 92.148438 L 201.4375 92.148438 L 201.4375 176.515625 L 102.5625 176.515625 Z M 102.5625 92.148438 "/>
</clipPath>
<clipPath id="clip4">
  <path d="M 102.316406 202.050781 L 201.191406 202.050781 L 201.191406 211.847656 L 102.316406 211.847656 Z M 102.316406 202.050781 "/>
</clipPath>
</defs>
<g id="surface1">
<rect x="0" y="0" width="304" height="304" style="fill:rgb(100%,100%,100%);fill-opacity:1;stroke:none;"/>
<g clip-path="url(#clip1)" clip-rule="nonzero">
<path style=" stroke:none;fill-rule:nonzero;fill:rgb(0%,0%,0%);fill-opacity:1;" d="M 59.539062 183.402344 L 62.015625 186.5 L 60.777344 182.472656 C 60.46875 180.613281 58.300781 182.78125 59.539062 183.402344 M 62.328125 181.542969 C 63.253906 183.089844 64.183594 184.640625 64.183594 186.1875 C 64.183594 188.359375 66.042969 189.285156 67.59375 189.90625 C 65.421875 187.429688 64.183594 180.613281 62.328125 181.542969 M 181.269531 50.207031 C 186.535156 50.207031 191.492188 49.589844 197.070312 50.828125 C 210.699219 54.234375 222.160156 61.046875 229.902344 70.652344 L 251.585938 105.34375 C 252.515625 114.015625 254.375 123.617188 254.0625 134.152344 C 256.230469 134.152344 255.921875 131.054688 258.398438 130.433594 C 255.921875 136.628906 254.683594 144.371094 254.0625 153.355469 C 252.515625 148.398438 254.0625 140.964844 254.375 136.9375 C 252.203125 140.347656 250.964844 137.867188 250.964844 136.320312 C 251.277344 133.839844 250.035156 134.148438 249.105469 133.222656 C 245.699219 130.125 243.53125 126.714844 241.054688 121.449219 C 242.601562 117.425781 242.914062 111.539062 237.957031 108.441406 C 236.40625 107.511719 234.550781 105.964844 233.621094 103.484375 C 232.382812 100.078125 230.210938 96.050781 230.832031 90.785156 C 231.140625 89.238281 226.183594 94.191406 223.398438 92.023438 C 211.316406 83.660156 199.238281 74.058594 184.679688 66.003906 C 176.933594 66.003906 171.359375 63.21875 168.570312 59.808594 C 166.09375 56.710938 167.953125 52.6875 171.667969 52.375 C 173.839844 52.375 176.316406 51.757812 178.175781 52.996094 C 178.484375 51.757812 179.722656 50.207031 181.269531 50.207031 M 150.605469 43.082031 L 151.226562 43.394531 C 154.324219 44.011719 155.871094 48.347656 159.277344 46.800781 C 159.277344 48.96875 159.589844 51.136719 158.96875 52.6875 C 158.039062 55.164062 155.25 55.164062 153.082031 55.164062 C 132.332031 53.925781 120.25 62.597656 107.550781 70.03125 C 104.144531 72.199219 100.425781 73.75 97.636719 76.535156 C 84.320312 88.925781 69.761719 100.386719 66.351562 123.308594 L 63.566406 148.707031 C 63.253906 151.496094 60.15625 154.285156 60.777344 157.691406 L 62.945312 172.871094 C 60.777344 170.699219 59.539062 173.488281 60.15625 174.726562 C 60.46875 175.65625 61.707031 178.753906 63.566406 175.96875 C 66.042969 180.613281 68.523438 189.597656 71.929688 193.621094 C 82.460938 206.011719 96.089844 217.164062 107.242188 228.316406 C 110.027344 227.695312 112.195312 227.695312 112.816406 225.835938 C 113.746094 227.695312 111.886719 229.554688 110.339844 229.863281 C 115.292969 232.960938 120.871094 235.75 128.304688 236.367188 C 137.90625 236.988281 146.890625 238.539062 155.253906 240.707031 C 159.589844 239.464844 163.925781 238.847656 168.570312 238.539062 C 170.121094 238.539062 171.050781 236.058594 172.910156 235.441406 L 173.21875 232.34375 C 175.078125 235.128906 174.765625 231.414062 173.527344 229.554688 C 175.695312 231.414062 176.316406 232.960938 177.246094 234.199219 C 177.246094 233.273438 179.722656 229.863281 179.722656 233.890625 L 180.34375 229.863281 C 181.269531 229.246094 181.582031 233.273438 182.511719 230.484375 C 183.441406 227.695312 185.296875 229.863281 187.15625 228.933594 C 186.539062 230.171875 186.847656 232.652344 189.015625 231.101562 L 191.492188 228.933594 C 193.042969 232.652344 195.519531 231.101562 196.757812 230.484375 C 210.386719 221.808594 224.015625 211.589844 237.027344 201.367188 L 236.71875 205.394531 L 238.265625 200.4375 C 239.816406 201.984375 241.054688 200.746094 241.671875 199.816406 C 243.53125 196.71875 246.007812 193.621094 250.035156 190.835938 C 245.082031 204.15625 239.195312 214.6875 231.761719 223.359375 L 228.664062 227.078125 C 228.664062 229.246094 228.042969 232.03125 225.566406 232.34375 C 224.328125 232.652344 221.847656 231.722656 219.992188 233.582031 C 219.0625 234.820312 222.160156 237.296875 219.679688 235.441406 C 217.511719 233.890625 215.34375 235.441406 212.867188 236.058594 C 211.007812 236.679688 214.105469 238.539062 214.726562 239.777344 C 215.34375 241.015625 215.964844 242.253906 215.65625 243.804688 L 212.246094 240.085938 C 208.21875 242.253906 205.742188 246.28125 202.335938 249.378906 C 200.785156 250.617188 201.40625 252.785156 201.40625 254.644531 C 199.238281 254.644531 196.757812 254.023438 195.519531 255.265625 C 194.589844 256.503906 194.902344 258.363281 194.902344 260.21875 C 191.804688 259.910156 191.492188 255.265625 188.707031 256.191406 C 185.917969 256.8125 182.820312 257.121094 180.34375 258.671875 C 182.199219 262.386719 177.246094 260.21875 177.863281 260.839844 C 173.21875 258.050781 169.191406 255.882812 164.234375 257.742188 C 153.703125 254.335938 140.695312 255.882812 131.089844 257.121094 C 131.089844 255.574219 131.402344 254.023438 130.78125 253.714844 C 130.160156 255.265625 128.304688 254.644531 128.613281 254.644531 C 122.730469 250.617188 116.84375 248.140625 110.648438 244.730469 C 105.074219 245.351562 99.808594 242.5625 98.257812 241.015625 C 93.921875 236.988281 88.964844 239.15625 84.9375 238.226562 C 76.265625 236.058594 73.167969 227.074219 72.238281 220.882812 C 71.617188 217.785156 69.140625 216.542969 68.210938 216.855469 C 64.183594 203.84375 57.992188 192.074219 53.035156 179.992188 C 51.796875 176.894531 52.105469 173.796875 52.105469 170.390625 C 53.652344 171.011719 55.203125 170.699219 54.894531 168.535156 C 53.34375 158.3125 49.628906 150.566406 45.601562 143.132812 C 47.769531 132.601562 48.078125 120.210938 53.035156 110.917969 C 57.371094 102.554688 65.425781 98.21875 71 91.09375 C 72.859375 88.617188 72.859375 85.210938 74.71875 83.042969 C 80.914062 76.847656 87.105469 70.339844 93.921875 64.765625 C 97.019531 62.289062 100.734375 64.765625 105.382812 63.835938 C 106.929688 58.261719 113.125 53.304688 119.011719 54.855469 C 121.488281 55.472656 126.445312 48.96875 127.996094 48.347656 C 130.472656 47.421875 129.234375 50.828125 129.234375 52.996094 C 135.117188 48.347656 143.171875 45.871094 150.605469 43.082031 "/>
</g>
<g clip-path="url(#clip2)" clip-rule="nonzero">
<path style=" stroke:none;fill-rule:nonzero;fill:rgb(0%,0%,0%);fill-opacity:1;" d="M 103.308594 185.476562 L 200.691406 185.476562 C 201.242188 185.476562 201.683594 185.921875 201.683594 186.472656 L 201.683594 192.09375 C 201.683594 192.640625 201.242188 193.085938 200.691406 193.085938 L 103.308594 193.085938 C 102.757812 193.085938 102.316406 192.640625 102.316406 192.09375 L 102.316406 186.472656 C 102.316406 185.921875 102.757812 185.476562 103.308594 185.476562 Z M 103.308594 185.476562 "/>
</g>
<g clip-path="url(#clip3)" clip-rule="nonzero">
<path style=" stroke:none;fill-rule:nonzero;fill:rgb(0%,0%,0%);fill-opacity:1;" d="M 145.082031 165.546875 C 152.730469 165.546875 158.972656 164.929688 163.8125 163.691406 C 161.785156 151.207031 156.050781 141.925781 146.601562 135.851562 C 145.589844 145.863281 145.082031 155.761719 145.082031 165.546875 Z M 102.5625 125.894531 C 102.5625 114.085938 103.628906 102.835938 105.769531 92.148438 L 199.414062 92.148438 C 194.351562 107.898438 184.675781 119.316406 170.390625 126.402344 C 183.328125 131.015625 193.675781 137.425781 201.4375 145.636719 C 200.425781 156.097656 198.007812 166.390625 194.183594 176.515625 L 109.3125 176.515625 C 104.8125 160.878906 102.5625 144.007812 102.5625 125.894531 Z M 147.949219 124.207031 C 153.460938 122.746094 158.582031 120.214844 163.304688 116.617188 C 168.03125 113.015625 171.402344 108.574219 173.429688 103.285156 C 164.429688 103.285156 157.117188 103.566406 151.492188 104.128906 C 150.144531 110.652344 148.960938 117.347656 147.949219 124.207031 Z M 147.949219 124.207031 "/>
</g>
<g clip-path="url(#clip4)" clip-rule="nonzero">
<path style=" stroke:none;fill-rule:nonzero;fill:rgb(0%,0%,0%);fill-opacity:1;" d="M 103.929688 202.175781 L 103.929688 211.71875 L 102.316406 211.71875 L 102.316406 202.175781 Z M 114.671875 211.71875 L 109.449219 211.71875 L 109.449219 202.175781 L 111.066406 202.175781 L 111.066406 210.570312 L 114.890625 210.570312 Z M 118.386719 202.175781 L 118.386719 211.71875 L 116.769531 211.71875 L 116.769531 202.175781 Z M 125.023438 209.183594 L 127.292969 202.175781 L 128.8125 202.175781 L 125.386719 211.71875 L 123.570312 211.71875 L 120.152344 202.175781 L 121.902344 202.175781 L 124.175781 209.183594 L 124.539062 210.535156 L 124.664062 210.535156 Z M 136.253906 211.71875 L 130.574219 211.71875 L 130.574219 202.175781 L 136.378906 202.175781 L 136.164062 203.324219 L 132.191406 203.324219 L 132.191406 206.203125 L 135.707031 206.203125 L 135.5 207.316406 L 132.191406 207.316406 L 132.191406 210.570312 L 136.472656 210.570312 Z M 145.214844 203.324219 L 145.214844 211.71875 L 143.59375 211.71875 L 143.59375 203.324219 L 140.503906 203.324219 L 140.714844 202.175781 L 148.40625 202.175781 L 148.191406 203.324219 Z M 154.066406 210.703125 C 154.535156 210.703125 154.960938 210.605469 155.34375 210.410156 C 155.722656 210.214844 156.050781 209.949219 156.324219 209.613281 C 156.59375 209.277344 156.804688 208.882812 156.949219 208.429688 C 157.097656 207.976562 157.171875 207.496094 157.171875 206.984375 C 157.171875 206.441406 157.089844 205.9375 156.929688 205.476562 C 156.765625 205.015625 156.539062 204.613281 156.253906 204.273438 C 155.96875 203.9375 155.628906 203.671875 155.238281 203.480469 C 154.847656 203.289062 154.425781 203.195312 153.96875 203.195312 C 153.496094 203.195312 153.066406 203.292969 152.683594 203.496094 C 152.304688 203.695312 151.976562 203.964844 151.707031 204.304688 C 151.441406 204.644531 151.234375 205.042969 151.085938 205.492188 C 150.941406 205.945312 150.867188 206.425781 150.867188 206.933594 C 150.867188 207.476562 150.949219 207.976562 151.109375 208.4375 C 151.269531 208.898438 151.492188 209.292969 151.777344 209.628906 C 152.0625 209.960938 152.398438 210.226562 152.789062 210.417969 C 153.179688 210.609375 153.605469 210.703125 154.066406 210.703125 Z M 153.84375 211.851562 C 153.425781 211.851562 153.015625 211.800781 152.621094 211.703125 C 152.226562 211.605469 151.855469 211.464844 151.511719 211.277344 C 151.164062 211.09375 150.851562 210.867188 150.566406 210.597656 C 150.28125 210.332031 150.035156 210.023438 149.832031 209.671875 C 149.625 209.328125 149.464844 208.941406 149.351562 208.523438 C 149.238281 208.105469 149.183594 207.65625 149.183594 207.171875 C 149.183594 206.671875 149.242188 206.199219 149.363281 205.753906 C 149.484375 205.304688 149.65625 204.894531 149.875 204.515625 C 150.09375 204.136719 150.359375 203.796875 150.664062 203.488281 C 150.976562 203.183594 151.316406 202.925781 151.683594 202.714844 C 152.054688 202.5 152.453125 202.335938 152.878906 202.21875 C 153.308594 202.105469 153.75 202.050781 154.207031 202.050781 C 154.832031 202.050781 155.421875 202.152344 155.984375 202.363281 C 156.546875 202.574219 157.039062 202.878906 157.464844 203.28125 C 157.890625 203.683594 158.230469 204.171875 158.480469 204.75 C 158.734375 205.328125 158.859375 205.984375 158.859375 206.71875 C 158.859375 207.210938 158.800781 207.683594 158.683594 208.132812 C 158.5625 208.578125 158.390625 208.992188 158.175781 209.371094 C 157.957031 209.75 157.699219 210.09375 157.394531 210.402344 C 157.089844 210.707031 156.753906 210.96875 156.382812 211.183594 C 156.011719 211.394531 155.609375 211.5625 155.183594 211.675781 C 154.753906 211.792969 154.308594 211.851562 153.84375 211.851562 Z M 171.207031 209.960938 L 171.207031 210.816406 C 170.976562 211.015625 170.722656 211.179688 170.441406 211.3125 C 170.160156 211.445312 169.878906 211.550781 169.585938 211.632812 C 169.300781 211.710938 169.015625 211.769531 168.738281 211.800781 C 168.457031 211.832031 168.203125 211.851562 167.976562 211.851562 C 167.335938 211.851562 166.742188 211.738281 166.195312 211.515625 C 165.644531 211.296875 165.171875 210.984375 164.765625 210.578125 C 164.363281 210.171875 164.042969 209.679688 163.816406 209.105469 C 163.585938 208.527344 163.46875 207.890625 163.46875 207.1875 C 163.46875 206.648438 163.539062 206.148438 163.671875 205.683594 C 163.804688 205.222656 163.992188 204.800781 164.230469 204.421875 C 164.472656 204.042969 164.753906 203.703125 165.085938 203.410156 C 165.414062 203.113281 165.773438 202.867188 166.164062 202.664062 C 166.554688 202.460938 166.972656 202.308594 167.410156 202.203125 C 167.847656 202.101562 168.296875 202.050781 168.757812 202.050781 C 168.90625 202.050781 169.074219 202.054688 169.257812 202.066406 C 169.445312 202.082031 169.644531 202.101562 169.859375 202.128906 C 170.070312 202.15625 170.289062 202.195312 170.519531 202.242188 C 170.746094 202.285156 170.980469 202.34375 171.214844 202.410156 L 170.953125 203.675781 L 170.824219 203.742188 C 170.371094 203.53125 169.949219 203.390625 169.554688 203.3125 C 169.164062 203.234375 168.824219 203.195312 168.535156 203.195312 C 168.042969 203.195312 167.585938 203.289062 167.167969 203.476562 C 166.75 203.667969 166.394531 203.925781 166.09375 204.253906 C 165.792969 204.585938 165.5625 204.976562 165.394531 205.421875 C 165.226562 205.875 165.144531 206.355469 165.144531 206.875 C 165.144531 207.382812 165.222656 207.863281 165.378906 208.320312 C 165.535156 208.777344 165.765625 209.175781 166.066406 209.519531 C 166.367188 209.867188 166.738281 210.140625 167.175781 210.34375 C 167.613281 210.550781 168.117188 210.652344 168.6875 210.652344 C 169.046875 210.652344 169.441406 210.601562 169.871094 210.5 C 170.300781 210.402344 170.746094 210.222656 171.207031 209.960938 Z M 177.535156 210.703125 C 178.007812 210.703125 178.429688 210.605469 178.8125 210.410156 C 179.195312 210.214844 179.523438 209.949219 179.792969 209.613281 C 180.0625 209.277344 180.273438 208.882812 180.421875 208.429688 C 180.570312 207.976562 180.640625 207.496094 180.640625 206.984375 C 180.640625 206.441406 180.5625 205.9375 180.398438 205.476562 C 180.234375 205.015625 180.011719 204.613281 179.722656 204.273438 C 179.4375 203.9375 179.097656 203.671875 178.707031 203.480469 C 178.320312 203.289062 177.894531 203.195312 177.4375 203.195312 C 176.964844 203.195312 176.539062 203.292969 176.15625 203.496094 C 175.773438 203.695312 175.449219 203.964844 175.179688 204.304688 C 174.910156 204.644531 174.703125 205.042969 174.558594 205.492188 C 174.410156 205.945312 174.339844 206.425781 174.339844 206.933594 C 174.339844 207.476562 174.417969 207.976562 174.578125 208.4375 C 174.742188 208.898438 174.964844 209.292969 175.25 209.628906 C 175.53125 209.960938 175.871094 210.226562 176.257812 210.417969 C 176.652344 210.609375 177.078125 210.703125 177.535156 210.703125 Z M 177.316406 211.851562 C 176.894531 211.851562 176.484375 211.800781 176.089844 211.703125 C 175.695312 211.605469 175.328125 211.464844 174.980469 211.277344 C 174.636719 211.09375 174.320312 210.867188 174.035156 210.597656 C 173.753906 210.332031 173.507812 210.023438 173.300781 209.671875 C 173.09375 209.328125 172.933594 208.941406 172.820312 208.523438 C 172.707031 208.105469 172.652344 207.65625 172.652344 207.171875 C 172.652344 206.671875 172.714844 206.199219 172.832031 205.753906 C 172.957031 205.304688 173.128906 204.894531 173.347656 204.515625 C 173.566406 204.136719 173.828125 203.796875 174.136719 203.488281 C 174.445312 203.183594 174.785156 202.925781 175.15625 202.714844 C 175.527344 202.5 175.925781 202.335938 176.351562 202.21875 C 176.777344 202.105469 177.21875 202.050781 177.679688 202.050781 C 178.300781 202.050781 178.894531 202.152344 179.453125 202.363281 C 180.015625 202.574219 180.511719 202.878906 180.9375 203.28125 C 181.363281 203.683594 181.703125 204.171875 181.953125 204.75 C 182.203125 205.328125 182.332031 205.984375 182.332031 206.71875 C 182.332031 207.210938 182.269531 207.683594 182.152344 208.132812 C 182.03125 208.578125 181.863281 208.992188 181.644531 209.371094 C 181.429688 209.75 181.167969 210.09375 180.863281 210.402344 C 180.5625 210.707031 180.222656 210.96875 179.851562 211.183594 C 179.480469 211.394531 179.082031 211.5625 178.65625 211.675781 C 178.226562 211.792969 177.78125 211.851562 177.316406 211.851562 Z M 184.554688 211.71875 L 184.554688 202.175781 L 187.949219 202.175781 C 188.789062 202.175781 189.527344 202.289062 190.164062 202.515625 C 190.800781 202.742188 191.335938 203.054688 191.765625 203.453125 C 192.195312 203.847656 192.519531 204.316406 192.738281 204.859375 C 192.957031 205.402344 193.066406 205.992188 193.066406 206.625 C 193.066406 207.023438 193.023438 207.429688 192.933594 207.835938 C 192.847656 208.246094 192.707031 208.636719 192.519531 209.015625 C 192.335938 209.390625 192.097656 209.742188 191.8125 210.070312 C 191.523438 210.402344 191.183594 210.691406 190.789062 210.933594 C 190.390625 211.179688 189.933594 211.371094 189.425781 211.511719 C 188.914062 211.648438 188.347656 211.71875 187.714844 211.71875 Z M 186.171875 203.324219 L 186.171875 210.570312 L 187.957031 210.570312 C 188.539062 210.570312 189.042969 210.476562 189.476562 210.285156 C 189.902344 210.089844 190.257812 209.828125 190.542969 209.496094 C 190.824219 209.160156 191.035156 208.769531 191.175781 208.324219 C 191.3125 207.875 191.382812 207.390625 191.382812 206.875 C 191.382812 206.308594 191.300781 205.808594 191.140625 205.371094 C 190.980469 204.929688 190.746094 204.558594 190.433594 204.253906 C 190.125 203.949219 189.742188 203.71875 189.289062 203.5625 C 188.839844 203.402344 188.324219 203.324219 187.75 203.324219 Z M 200.976562 211.71875 L 195.296875 211.71875 L 195.296875 202.175781 L 201.097656 202.175781 L 200.882812 203.324219 L 196.914062 203.324219 L 196.914062 206.203125 L 200.429688 206.203125 L 200.21875 207.316406 L 196.914062 207.316406 L 196.914062 210.570312 L 201.191406 210.570312 Z M 200.976562 211.71875 "/>
</g>
</g>
</svg>
